<svg width="65" height="60" viewBox="0 0 65 60" fill="none" xmlns="http://www.w3.org/2000/svg">
<mask id="path-1-inside-1" fill="white">
<path d="M61.7313 55.4433C63.026 55.4433 64.0755 56.4634 64.0755 57.7217C64.0755 58.8751 63.1936 59.8283 62.0494 59.9792L61.7313 60H37.2741C35.9794 60 34.9299 58.98 34.9299 57.7217C34.9299 56.5682 35.8118 55.615 36.956 55.4641L37.2741 55.4433H61.7313ZM37.9442 3.23512C42.3824 -1.07837 49.5811 -1.07837 54.0193 3.23512L58.6269 7.71316C63.0651 12.0267 63.0651 19.023 58.6269 23.3365L23.9949 56.995C22.0146 58.9197 19.3297 59.9996 16.5273 59.9996H2.34424C1.02668 59.9996 -0.032092 58.9447 0.000743627 57.6645L0.357511 43.7557C0.428442 41.1269 1.53521 38.6207 3.44821 36.7614L37.9442 3.23512ZM35.2629 12.2788L6.76345 39.9835C5.70009 41.017 5.08382 42.4125 5.04443 43.8722L4.74675 55.4414L16.5273 55.443C17.9134 55.443 19.2465 54.9687 20.2987 54.112L20.6796 53.773L49.3203 25.9376L35.2629 12.2788ZM50.7041 6.45717C48.0968 3.92316 43.8667 3.92316 41.2594 6.45717L38.5806 9.05647L52.6345 22.7153L55.3117 20.1144C57.7741 17.7212 57.9109 13.9211 55.7221 11.3716L55.3117 10.9352L50.7041 6.45717Z"/>
</mask>
<path d="M61.7313 55.4433C63.026 55.4433 64.0755 56.4634 64.0755 57.7217C64.0755 58.8751 63.1936 59.8283 62.0494 59.9792L61.7313 60H37.2741C35.9794 60 34.9299 58.98 34.9299 57.7217C34.9299 56.5682 35.8118 55.615 36.956 55.4641L37.2741 55.4433H61.7313ZM37.9442 3.23512C42.3824 -1.07837 49.5811 -1.07837 54.0193 3.23512L58.6269 7.71316C63.0651 12.0267 63.0651 19.023 58.6269 23.3365L23.9949 56.995C22.0146 58.9197 19.3297 59.9996 16.5273 59.9996H2.34424C1.02668 59.9996 -0.032092 58.9447 0.000743627 57.6645L0.357511 43.7557C0.428442 41.1269 1.53521 38.6207 3.44821 36.7614L37.9442 3.23512ZM35.2629 12.2788L6.76345 39.9835C5.70009 41.017 5.08382 42.4125 5.04443 43.8722L4.74675 55.4414L16.5273 55.443C17.9134 55.443 19.2465 54.9687 20.2987 54.112L20.6796 53.773L49.3203 25.9376L35.2629 12.2788ZM50.7041 6.45717C48.0968 3.92316 43.8667 3.92316 41.2594 6.45717L38.5806 9.05647L52.6345 22.7153L55.3117 20.1144C57.7741 17.7212 57.9109 13.9211 55.7221 11.3716L55.3117 10.9352L50.7041 6.45717Z" fill="#200E32"/>
<path d="M62.0494 59.9792L62.6367 68.96L62.9322 68.9407L63.2258 68.902L62.0494 59.9792ZM61.7313 60V69H62.0252L62.3186 68.9808L61.7313 60ZM36.956 55.4641L36.3689 46.4833L36.0733 46.5026L35.7796 46.5414L36.956 55.4641ZM37.2741 55.4433V46.4433H36.9802L36.687 46.4625L37.2741 55.4433ZM37.9442 3.23512L31.6716 -3.2189L37.9442 3.23512ZM54.0193 3.23512L60.292 -3.2189L60.292 -3.2189L54.0193 3.23512ZM58.6269 7.71316L52.3543 14.1672L52.3543 14.1672L58.6269 7.71316ZM58.6269 23.3365L52.3543 16.8825L52.3543 16.8825L58.6269 23.3365ZM23.9949 56.995L30.2675 63.4491L30.2675 63.4491L23.9949 56.995ZM0.000743627 57.6645L-8.9963 57.4338L-8.9963 57.4338L0.000743627 57.6645ZM0.357511 43.7557L-8.63922 43.513L-8.63953 43.5249L0.357511 43.7557ZM3.44821 36.7614L-2.82439 30.3074L-2.8244 30.3074L3.44821 36.7614ZM35.2629 12.2788L41.5347 5.824L35.2614 -0.271406L28.9895 5.82552L35.2629 12.2788ZM6.76345 39.9835L13.0361 46.4375L13.0368 46.4368L6.76345 39.9835ZM5.04443 43.8722L-3.9523 43.6295L-3.95259 43.6407L5.04443 43.8722ZM4.74675 55.4414L-4.25027 55.2099L-4.48777 64.4401L4.74552 64.4414L4.74675 55.4414ZM16.5273 55.443L16.526 64.443H16.5273V55.443ZM20.2987 54.112L25.9813 61.0911L26.1344 60.9665L26.2818 60.8353L20.2987 54.112ZM20.6796 53.773L26.6628 60.4963L26.8104 60.3648L26.9522 60.227L20.6796 53.773ZM49.3203 25.9376L55.5929 32.3917L62.2345 25.9369L55.5921 19.4828L49.3203 25.9376ZM50.7041 6.45717L56.9767 0.00314865L56.9767 0.00314782L50.7041 6.45717ZM41.2594 6.45717L47.5268 12.9163L47.532 12.9112L41.2594 6.45717ZM38.5806 9.05647L32.3132 2.59735L25.6619 9.05122L32.308 15.5105L38.5806 9.05647ZM52.6345 22.7153L46.3619 29.1693L52.6332 35.2643L58.9057 29.1706L52.6345 22.7153ZM55.3117 20.1144L61.5829 26.5698L61.5843 26.5685L55.3117 20.1144ZM55.7221 11.3716L62.5507 5.50905L62.4179 5.35437L62.2783 5.20585L55.7221 11.3716ZM55.3117 10.9352L61.8678 4.76946L61.7293 4.62214L61.5843 4.48119L55.3117 10.9352ZM61.7313 64.4433C58.299 64.4433 55.0755 61.6741 55.0755 57.7217H73.0755C73.0755 51.2527 67.7529 46.4433 61.7313 46.4433V64.4433ZM55.0755 57.7217C55.0755 54.1045 57.7973 51.4619 60.8729 51.0564L63.2258 68.902C68.5898 68.1947 73.0755 63.6457 73.0755 57.7217H55.0755ZM61.4621 50.9984L61.144 51.0192L62.3186 68.9808L62.6367 68.96L61.4621 50.9984ZM61.7313 51H37.2741V69H61.7313V51ZM37.2741 51C40.7063 51 43.9299 53.7692 43.9299 57.7217H25.9299C25.9299 64.1907 31.2525 69 37.2741 69V51ZM43.9299 57.7217C43.9299 61.3388 41.2081 63.9814 38.1325 64.3869L35.7796 46.5414C30.4155 47.2486 25.9299 51.7977 25.9299 57.7217H43.9299ZM37.5432 64.445L37.8613 64.4242L36.687 46.4625L36.3689 46.4833L37.5432 64.445ZM37.2741 64.4433H61.7313V46.4433H37.2741V64.4433ZM44.2168 9.68914C45.1622 8.77029 46.8013 8.77029 47.7467 9.68914L60.292 -3.2189C52.3609 -10.927 39.6026 -10.927 31.6716 -3.2189L44.2168 9.68914ZM47.7467 9.68914L52.3543 14.1672L64.8995 1.25914L60.292 -3.2189L47.7467 9.68914ZM52.3543 14.1672C53.156 14.9464 53.156 16.1033 52.3543 16.8825L64.8995 29.7905C72.9743 21.9427 72.9743 9.10694 64.8995 1.25914L52.3543 14.1672ZM52.3543 16.8825L17.7223 50.541L30.2675 63.4491L64.8995 29.7905L52.3543 16.8825ZM17.7223 50.541C17.4502 50.8054 17.027 50.9996 16.5273 50.9996V68.9996C21.6324 68.9996 26.579 67.0339 30.2675 63.4491L17.7223 50.541ZM16.5273 50.9996H2.34424V68.9996H16.5273V50.9996ZM2.34424 50.9996C5.8346 50.9996 9.10112 53.8668 8.99778 57.8953L-8.9963 57.4338C-9.1653 64.0225 -3.78123 68.9996 2.34424 68.9996V50.9996ZM8.99778 57.8953L9.35455 43.9865L-8.63953 43.5249L-8.9963 57.4338L8.99778 57.8953ZM9.35424 43.9985C9.36091 43.7511 9.46581 43.4633 9.72082 43.2155L-2.8244 30.3074C-6.39539 33.778 -8.50403 38.5027 -8.63921 43.513L9.35424 43.9985ZM9.72082 43.2155L44.2168 9.68914L31.6716 -3.2189L-2.82439 30.3074L9.72082 43.2155ZM28.9895 5.82552L0.490105 33.5302L13.0368 46.4368L41.5362 18.7321L28.9895 5.82552ZM0.49084 33.5295C-2.22959 36.1734 -3.84861 39.787 -3.9523 43.6295L14.0412 44.115C14.0162 45.038 13.6298 45.8605 13.0361 46.4375L0.49084 33.5295ZM-3.95259 43.6407L-4.25027 55.2099L13.7438 55.6729L14.0414 44.1037L-3.95259 43.6407ZM4.74552 64.4414L16.526 64.443L16.5285 46.443L4.74797 46.4414L4.74552 64.4414ZM16.5273 64.443C19.9613 64.443 23.3065 63.269 25.9813 61.0911L14.6161 47.1329C15.1866 46.6684 15.8656 46.443 16.5273 46.443V64.443ZM26.2818 60.8353L26.6628 60.4963L14.6965 47.0497L14.3156 47.3887L26.2818 60.8353ZM26.9522 60.227L55.5929 32.3917L43.0478 19.4836L14.4071 47.3189L26.9522 60.227ZM55.5921 19.4828L41.5347 5.824L28.9911 18.7336L43.0486 32.3925L55.5921 19.4828ZM56.9767 0.00314782C50.8766 -5.9255 41.0869 -5.9255 34.9868 0.00314782L47.532 12.9112C46.6465 13.7718 45.317 13.7718 44.4315 12.9112L56.9767 0.00314782ZM34.9921 -0.00195452L32.3132 2.59735L44.8479 15.5156L47.5268 12.9163L34.9921 -0.00195452ZM32.308 15.5105L46.3619 29.1693L58.9071 16.2613L44.8532 2.60244L32.308 15.5105ZM58.9057 29.1706L61.5829 26.5698L49.0404 13.6591L46.3632 16.26L58.9057 29.1706ZM61.5843 26.5685C67.4745 20.8438 67.8207 11.6474 62.5507 5.50905L48.8934 17.2342C48.0012 16.1949 48.0738 14.5986 49.0391 13.6604L61.5843 26.5685ZM62.2783 5.20585L61.8678 4.76946L48.7555 17.101L49.1659 17.5374L62.2783 5.20585ZM61.5843 4.48119L56.9767 0.00314865L44.4315 12.9112L49.0391 17.3892L61.5843 4.48119Z" fill="black" mask="url(#path-1-inside-1)"/>
</svg>
