<svg width="65" height="61" viewBox="0 0 65 61" fill="none" xmlns="http://www.w3.org/2000/svg">
<path d="M32.5011 0C34.3634 0.00963157 36.06 1.04984 36.8888 2.69684L44.2373 17.2726C44.2698 17.3047 44.3023 17.3368 44.3315 17.3368L60.7836 19.6805C62.0706 19.8603 63.2374 20.5281 64.0337 21.5426C65.4995 23.4818 65.2752 26.1882 63.5137 27.8673L51.5858 39.2647C51.5858 39.2647 51.563 39.2872 51.563 39.2968C51.563 39.3064 51.563 39.2968 51.5858 39.3289L54.4459 55.4136C54.8359 58.0302 53.0288 60.4766 50.3832 60.9036C50.1297 60.9389 49.8697 60.9614 49.6129 60.9614C48.8069 60.9646 48.0106 60.7688 47.2989 60.3899L32.6051 52.8131C32.5596 52.8099 32.5141 52.8227 32.4751 52.8452L17.6806 60.4862C16.9981 60.8265 16.2376 61.0031 15.4705 61C13.6505 61.0031 11.9767 60.0143 11.1186 58.4315C10.6084 57.5004 10.4231 56.4281 10.5954 55.3815L13.4912 39.361C13.4912 39.3257 13.4815 39.2904 13.4555 39.2647L1.43005 27.8352C0.516768 26.9555 0.00325011 25.7484 0 24.4866C0 23.1575 0.539518 21.8829 1.4983 20.9551C2.25558 20.2809 3.19161 19.8378 4.19589 19.6709L20.609 17.3272C20.674 17.3272 20.7422 17.2983 20.7422 17.2309L28.081 2.69684C28.6595 1.54426 29.6768 0.670999 30.9086 0.256842C31.4221 0.0834735 31.9616 0 32.5011 0ZM32.5011 4.68736H32.4394L32.4069 4.70984C32.3776 4.72589 32.3581 4.75157 32.3419 4.78047L24.9934 19.3241C24.2848 20.7528 22.9165 21.7449 21.324 21.9889L4.97592 24.3036L4.77766 24.3679C4.75166 24.4096 4.74516 24.4513 4.74841 24.4995L16.7738 35.8968C17.9179 37.0077 18.4379 38.6033 18.1714 40.1668L15.3113 56.1552V56.2194C15.3275 56.2837 15.386 56.3286 15.4543 56.3286H15.5063L30.226 48.7036C30.9476 48.3248 31.7536 48.1225 32.5694 48.1225C33.3624 48.1193 34.1424 48.3119 34.8444 48.6715L49.4699 56.2162H49.4992C49.5284 56.2323 49.5609 56.2451 49.5934 56.2483C49.6064 56.2548 49.6194 56.2548 49.6324 56.2483H49.7007L49.7657 56.1873L46.9023 40.1957C46.5871 38.6194 47.1169 36.9948 48.3031 35.8968L60.2311 24.4706L60.2636 24.4L60.2311 24.3711H60.1856C60.1596 24.3582 60.1303 24.3518 60.101 24.3518L43.649 21.9889C42.0564 21.7481 40.6849 20.7528 39.9796 19.3241L32.6344 4.81578C32.6376 4.78689 32.6279 4.7612 32.6084 4.74194C32.5856 4.72268 32.5596 4.71626 32.5304 4.71626L32.5011 4.68736Z" fill="black"/>
</svg>
